<svg xmlns="http://www.w3.org/2000/svg" width="40" height="40" viewBox="0 0 24 24" fill="none">
  <defs>
    <linearGradient id="sentimentGrad" x1="0%" y1="0%" x2="100%" y2="100%">
      <stop offset="0%" stop-color="#00f2fe" />
      <stop offset="100%" stop-color="#4facfe" />
    </linearGradient>
  </defs>
  <!-- Modern messaging bubble -->
  <path d="M21 11.5a8.38 8.38 0 0 1-.9 3.8 8.5 8.5 0 0 1-7.6 4.7 8.38 8.38 0 0 1-3.8-.9L3 21l1.9-5.7a8.38 8.38 0 0 1-.9-3.8 8.5 8.5 0 0 1 4.7-7.6 8.38 8.38 0 0 1 3.8-.9h.5a8.48 8.48 0 0 1 8 8v.5z" stroke="url(#sentimentGrad)" stroke-width="2" stroke-linecap="round" stroke-linejoin="round" fill="none"/>
  <!-- Sentiment smile inside -->
  <circle cx="9" cy="11" r="1.5" fill="url(#sentimentGrad)"/>
  <circle cx="15" cy="11" r="1.5" fill="url(#sentimentGrad)"/>
  <path d="M9 14.5a4.5 4.5 0 0 0 6 0" stroke="url(#sentimentGrad)" stroke-width="2" stroke-linecap="round" stroke-linejoin="round"/>
</svg>
